<?xml version="1.0" encoding="utf-8"?>
<!-- Generator: Adobe Illustrator 26.0.3, SVG Export Plug-In . SVG Version: 6.00 Build 0)  -->
<svg version="1.1" id="Layer_1" xmlns="http://www.w3.org/2000/svg" xmlns:xlink="http://www.w3.org/1999/xlink" x="0px" y="0px"
	 viewBox="0 0 30 30" style="enable-background:new 0 0 30 30;" xml:space="preserve">
<style type="text/css">
	.st0{fill:#FFFFFF;}
</style>
<g>
	<path id="polygon161" class="st0" d="M24.04,16.42l-13.1-2.05l1.74,7.81L24.04,16.42z"/>
	<path id="polygon163" class="st0" d="M24.04,16.42L14.16,2.7l-3.23,11.67L24.04,16.42z"/>
	<path id="polygon165" class="st0" d="M10.63,14.21L0.29,0.99l13.55,1.62L10.63,14.21z"/>
	<path id="polygon167" class="st0" d="M5.92,8.69L0.17,3.27h1.51L5.92,8.69z"/>
	<path id="polygon169" class="st0" d="M26.83,9.75l-2.43,6.59l-3.94-5.45L26.83,9.75z"/>
	<path id="polygon171" class="st0" d="M14.2,21.78l9.54-3.83l0.4-1.22L14.2,21.78z"/>
	<path id="polygon173" class="st0" d="M6.57,29.01l4.09-14.33L12.73,24L6.57,29.01z"/>
	<path id="polygon175" class="st0" d="M27.21,9.8l-1,2.72l3.62-0.06L27.21,9.8z"/>
</g>
</svg>
