<?xml version="1.0" encoding="utf-8"?>
<!-- Generator: Adobe Illustrator 26.0.3, SVG Export Plug-In . SVG Version: 6.00 Build 0)  -->
<svg version="1.1" id="Layer_1" xmlns="http://www.w3.org/2000/svg" xmlns:xlink="http://www.w3.org/1999/xlink" x="0px" y="0px"
	 viewBox="0 0 30 30" style="enable-background:new 0 0 30 30;" xml:space="preserve">
<style type="text/css">
	.st0{fill:#FFFFFF;}
</style>
<g>
	<g>
		<path class="st0" d="M26.88,15.78c0,1.03-0.11,1.98-0.32,2.93l0,0c-0.39,1.7-1.1,3.29-2.09,4.67c-0.04,0.04-0.04,0.07-0.07,0.07
			c-0.18,0.25-0.35,0.46-0.53,0.67l0,0c-0.04,0.04-0.04,0.07-0.07,0.07c-0.57,0.67-1.24,1.31-1.94,1.87c-0.74,0.6-1.56,1.1-2.4,1.52
			c-1.03,0.5-2.09,0.85-3.25,1.1c-0.14,0.04-0.32,0.07-0.46,0.07c-0.14,0.04-0.28,0.04-0.42,0.07c-0.21,0.04-0.42,0.04-0.64,0.07
			c-0.32,0.04-0.64,0.04-0.95,0.04c-0.28,0-0.57,0-0.81-0.04c-0.5-0.04-0.95-0.07-1.45-0.18c-0.42-0.07-0.88-0.18-1.31-0.28
			c-2.4-0.67-4.53-2.02-6.15-3.78c-0.25-0.25-0.46-0.53-0.67-0.78C2.34,22.6,1.6,21.19,1.1,19.63c-0.39-1.2-0.6-2.51-0.6-3.85
			C0.5,10.54,3.58,6.02,8,3.9c-0.39,0.5-0.74,1.03-1.06,1.59C6.9,5.52,6.87,5.56,6.83,5.59c-2.62,2.12-4.31,5.37-4.31,9.02
			c0,0.81,0.07,1.59,0.25,2.37c0,0.07,0.04,0.11,0.04,0.18c0.04,0.11,0.07,0.25,0.07,0.35c0.04,0.11,0.07,0.21,0.11,0.35
			c0.11,0.35,0.21,0.67,0.35,0.99c0.04,0.07,0.07,0.18,0.11,0.25c0.07,0.18,0.14,0.32,0.21,0.5c0.11,0.21,0.21,0.39,0.32,0.57l0,0
			c0.07,0.14,0.18,0.28,0.25,0.42c0.07,0.14,0.14,0.25,0.25,0.35c0.04,0.07,0.07,0.11,0.11,0.18c0.07,0.11,0.18,0.25,0.25,0.35
			s0.14,0.21,0.25,0.32c0.07,0.11,0.14,0.18,0.21,0.28c0.28,0.35,0.6,0.67,0.95,0.99c0.14,0.14,0.28,0.25,0.42,0.35
			c0.11,0.11,0.21,0.18,0.32,0.25c0.11,0.07,0.21,0.14,0.32,0.25c0.21,0.14,0.42,0.32,0.67,0.46c0.14,0.11,0.32,0.18,0.46,0.28
			c0.14,0.07,0.28,0.18,0.46,0.25c0.07,0.04,0.14,0.07,0.25,0.11c0.04,0.04,0.11,0.07,0.14,0.07c0,0,0.04,0,0.07,0.04
			c0.11,0.07,0.25,0.11,0.35,0.14l0,0c0.04,0.04,0.07,0.04,0.14,0.07c0.14,0.07,0.28,0.11,0.42,0.14c0.07,0.04,0.18,0.07,0.25,0.07
			l0,0c0.42,0.14,0.85,0.25,1.27,0.35c0.18,0.04,0.32,0.07,0.5,0.11c0.14,0.04,0.28,0.04,0.42,0.07c0.11,0,0.21,0.04,0.35,0.04l0,0
			h0.04c0.07,0,0.14,0,0.18,0c0.07,0,0.11,0,0.18,0c0.04,0,0.04,0,0.07,0c0.04,0,0.07,0,0.11,0h0.04h0.07c0,0,0,0,0.04,0l0,0h0.07
			c0.11,0,0.21,0,0.32,0c1.13,0,2.23-0.18,3.29-0.46c0.32-0.11,0.64-0.21,0.95-0.32c0.25-0.11,0.5-0.21,0.74-0.32l0,0
			c0.11-0.07,0.25-0.11,0.35-0.18c0.07-0.04,0.14-0.07,0.21-0.11c0.07-0.04,0.11-0.07,0.18-0.11c0.18-0.11,0.35-0.21,0.53-0.32
			c0.11-0.07,0.25-0.14,0.35-0.25c0.11-0.07,0.21-0.18,0.35-0.25c0.11-0.07,0.18-0.14,0.28-0.21c0.07-0.07,0.14-0.11,0.21-0.18
			c0.07-0.07,0.18-0.14,0.25-0.21c0.11-0.11,0.21-0.18,0.32-0.28s0.21-0.21,0.28-0.28c0.07-0.07,0.18-0.18,0.25-0.28
			c0.04-0.04,0.07-0.07,0.07-0.11c0.04-0.04,0.07-0.11,0.14-0.14c0.11-0.11,0.21-0.25,0.28-0.35c0.07-0.07,0.11-0.14,0.18-0.25l0,0
			l0,0l0,0c0.07-0.07,0.14-0.18,0.21-0.28c0.04-0.04,0.07-0.07,0.07-0.14c0.11-0.14,0.18-0.28,0.28-0.42
			c0.11-0.14,0.18-0.32,0.28-0.46c0.04-0.07,0.07-0.14,0.14-0.21l0,0c0,0,0,0,0-0.04c0.04-0.11,0.11-0.18,0.14-0.28
			c0.07-0.11,0.11-0.21,0.14-0.32c0.07-0.14,0.11-0.25,0.18-0.39c0.04-0.11,0.07-0.21,0.11-0.28c0.04-0.07,0.07-0.18,0.11-0.25
			c0.04-0.04,0.04-0.11,0.04-0.14c0-0.04,0.04-0.11,0.04-0.14c0.07-0.18,0.14-0.39,0.18-0.57c0.04-0.07,0.04-0.18,0.07-0.25
			c0.04-0.14,0.07-0.32,0.11-0.46c0.04-0.14,0.07-0.28,0.07-0.42c0.04-0.18,0.07-0.35,0.07-0.57c0-0.14,0.04-0.25,0.04-0.39
			c0-0.11,0-0.25,0.04-0.35c0-0.11,0-0.18,0-0.28c0-0.04,0-0.04,0-0.07c0-0.07,0-0.18,0-0.25c0-0.32,0-0.67-0.04-0.99
			c0-0.04,0-0.07,0-0.11l0,0c0.11,0.07,0.21,0.14,0.28,0.21c0.07,0.07,0.18,0.14,0.25,0.21l0,0c0.14-0.25,0.28-0.5,0.46-0.71
			l0.04-0.04c0,0.04,0,0.07,0.04,0.11c0.07,0.39,0.14,0.81,0.18,1.24v0.04C26.85,14.93,26.88,15.35,26.88,15.78z"/>
		<path class="st0" d="M25.61,14.58c0,0.07,0,0.18,0,0.25c0,0.04,0,0.04,0,0.07c0,0.11,0,0.18,0,0.28s0,0.25-0.04,0.35
			c0,0.14-0.04,0.25-0.04,0.39c-0.04,0.18-0.04,0.35-0.07,0.57c-0.04,0.14-0.04,0.28-0.07,0.42c-0.04,0.14-0.07,0.32-0.11,0.46
			c-0.04,0.07-0.04,0.18-0.07,0.25c-0.04,0.21-0.11,0.39-0.18,0.57c0,0.04-0.04,0.11-0.04,0.14c0,0.04-0.04,0.11-0.04,0.14
			c-0.04,0.07-0.07,0.18-0.11,0.25c-0.04,0.11-0.07,0.21-0.11,0.28c-0.04,0.14-0.11,0.25-0.18,0.39c-0.04,0.11-0.11,0.21-0.14,0.32
			s-0.11,0.18-0.14,0.28v0.04l0,0c-0.04,0.07-0.07,0.14-0.14,0.21c-0.07,0.14-0.18,0.32-0.28,0.46c-0.07,0.14-0.18,0.28-0.28,0.42
			c-0.04,0.04-0.07,0.07-0.07,0.14c-0.07,0.11-0.14,0.18-0.21,0.28l0,0l0,0l0,0c-0.07,0.07-0.11,0.14-0.18,0.25
			c-0.11,0.11-0.18,0.25-0.28,0.35c-0.04,0.04-0.07,0.11-0.14,0.14c-0.04,0.04-0.07,0.07-0.07,0.11c-0.07,0.11-0.18,0.18-0.25,0.28
			c-0.11,0.11-0.21,0.21-0.28,0.28c-0.11,0.11-0.21,0.18-0.32,0.28c-0.07,0.07-0.18,0.14-0.25,0.21c-0.07,0.07-0.14,0.11-0.21,0.18
			c-0.11,0.07-0.18,0.14-0.28,0.21c-0.11,0.07-0.21,0.18-0.35,0.25c-0.11,0.07-0.21,0.14-0.35,0.25c-0.18,0.11-0.35,0.21-0.53,0.32
			c-0.07,0.04-0.11,0.07-0.18,0.11c-0.07,0.04-0.14,0.07-0.21,0.11c-0.11,0.07-0.25,0.14-0.35,0.18l0,0
			c-0.25,0.11-0.5,0.21-0.74,0.32c-0.32,0.11-0.6,0.21-0.95,0.32c-1.03,0.32-2.12,0.46-3.29,0.46c-0.11,0-0.21,0-0.32,0h-0.04l0,0
			l0,0h-0.04c-0.04,0-0.07,0-0.07,0c-0.04,0-0.07,0-0.11,0c-0.04,0-0.04,0-0.07,0c-0.07,0-0.11,0-0.18,0c-0.07,0-0.14,0-0.18,0
			h-0.04l0,0c-0.11,0-0.21-0.04-0.35-0.04s-0.28-0.04-0.42-0.07c-0.18-0.04-0.32-0.07-0.5-0.11c-0.42-0.07-0.85-0.21-1.27-0.35l0,0
			c-0.07-0.04-0.18-0.07-0.25-0.07c-0.14-0.04-0.28-0.11-0.42-0.14c-0.04,0-0.11-0.04-0.14-0.07l0,0c-0.11-0.04-0.25-0.11-0.35-0.14
			c-0.04,0-0.04,0-0.07-0.04c-0.07-0.04-0.11-0.04-0.14-0.07c-0.07-0.04-0.18-0.07-0.25-0.11c-0.14-0.07-0.28-0.14-0.46-0.25
			c-0.14-0.07-0.32-0.18-0.46-0.28c-0.21-0.14-0.46-0.28-0.67-0.46c-0.11-0.07-0.21-0.14-0.32-0.25c-0.11-0.07-0.21-0.18-0.32-0.25
			c-0.14-0.11-0.28-0.25-0.42-0.35c-0.07-0.07-0.11-0.11-0.18-0.18c-0.07-0.07-0.14-0.14-0.21-0.21c-0.04-0.04-0.07-0.07-0.11-0.11
			c-0.07-0.07-0.14-0.18-0.21-0.25s-0.18-0.18-0.25-0.28s-0.14-0.18-0.21-0.28s-0.18-0.21-0.25-0.32c-0.11-0.11-0.18-0.25-0.25-0.35
			c-0.04-0.07-0.07-0.11-0.11-0.18c-0.07-0.11-0.14-0.25-0.25-0.35c-0.07-0.14-0.18-0.28-0.25-0.42l0,0
			c-0.11-0.18-0.21-0.39-0.32-0.57c-0.07-0.18-0.14-0.32-0.21-0.5c-0.04-0.07-0.07-0.18-0.11-0.25c-0.14-0.32-0.25-0.67-0.35-0.99
			c-0.04-0.11-0.07-0.21-0.11-0.35C2.84,17.4,2.8,17.26,2.8,17.16c0-0.07-0.04-0.11-0.04-0.18c-0.14-0.78-0.25-1.56-0.25-2.37
			c0-3.64,1.7-6.9,4.31-9.02C6.87,5.56,6.9,5.52,6.94,5.49c-1.1,1.94-1.73,4.17-1.73,6.54c0,0.74,0.07,1.45,0.18,2.16
			s0.28,1.38,0.5,2.02c0.11,0.28,0.21,0.57,0.32,0.81c0.32,0.74,0.67,1.45,1.1,2.12c0.04,0.04,0.04,0.07,0.07,0.11
			c0,0.04,0.04,0.07,0.04,0.07l0,0c0,0,0,0,0,0.04l0,0c0.04,0.04,0.07,0.07,0.07,0.14l0,0l0,0c0.07,0.11,0.14,0.21,0.21,0.32l0,0
			c0.04,0.07,0.07,0.11,0.11,0.18l0,0c0.04,0.07,0.11,0.14,0.14,0.21l0,0C7.96,20.23,7.96,20.27,8,20.3c0,0,0,0,0.04,0.04l0,0l0,0
			l0,0l0,0l0,0l0,0l0,0c0.04,0.07,0.11,0.14,0.14,0.18s0.07,0.07,0.07,0.11l0,0c0.07,0.11,0.18,0.18,0.28,0.28
			c0.07,0.07,0.14,0.14,0.21,0.21l0,0c0.28,0.28,0.6,0.53,0.95,0.74l0,0c0.64,0.42,1.38,0.74,2.16,0.92l0,0
			c0.11,0.04,0.18,0.04,0.28,0.07c0.07,0,0.14,0.04,0.21,0.04c0.39,0.07,0.74,0.11,1.13,0.11c0.6,0,1.17-0.07,1.7-0.21
			c3.08-0.74,5.37-3.54,5.37-6.86c0-1.98-0.81-3.75-2.09-5.02c2.05,0.14,3.96,0.78,5.66,1.73c0.07,0.04,0.14,0.11,0.25,0.14
			c0.35,0.21,0.67,0.42,0.99,0.67l0.04,0.04l0,0c0,0.04,0,0.07,0,0.11C25.57,13.9,25.61,14.26,25.61,14.58z"/>
		<path class="st0" d="M7.33,16.2c0,0.18,0,0.35,0,0.53c-0.78-1.56-1.24-3.32-1.24-5.16c0-4.63,2.76-8.63,6.72-10.43l2.3,4.21
			C10.58,6.83,7.33,11.15,7.33,16.2z"/>
		<path class="st0" d="M22.39,7.47c-0.88-0.21-1.8-0.32-2.76-0.32c-2.3,0-4.46,0.64-6.33,1.73l0,0c-0.57,0.35-1.13,0.74-1.63,1.17
			c-0.92,0.78-1.73,1.7-2.4,2.69c-0.35,0.53-0.64,1.06-0.88,1.63c0,0.04-0.04,0.07-0.04,0.07c-0.04,0.07-0.07,0.18-0.11,0.25
			c0-0.04,0-0.07,0.04-0.11l0,0V14.5c0.04-0.14,0.07-0.28,0.11-0.46c0.07-0.28,0.14-0.53,0.25-0.81c0.42-1.34,1.1-2.58,1.94-3.68
			l0,0c1.41-1.84,3.32-3.29,5.52-4.1l-0.21-0.39l0,0l-1.1-2.05l-0.14-0.25c0.07-0.07,0.18-0.11,0.28-0.14
			c1.8-0.99,3.85-1.56,6.01-1.56c0.42,0,0.85,0.04,1.24,0.07l0.14,3.36v0.39v0.32L22.39,7.47z"/>
		<path class="st0" d="M28.01,6.73c-0.64-0.39-1.34-0.71-2.05-0.99l0,0c-0.95-0.35-1.94-0.6-2.97-0.74l0.04,0.5l0.07,2.12l0.04,0.71
			c-0.99-0.25-2.05-0.39-3.11-0.39c-1.8,0-3.54,0.39-5.06,1.06l0,0c-1.1,0.5-2.12,1.13-3.04,1.91l0,0
			c-0.32,0.28-0.64,0.57-0.92,0.85c1.06-0.57,2.23-0.99,3.43-1.27l0,0c1.03-0.25,2.12-0.39,3.22-0.39h0.07
			c2.83,0,5.48,0.81,7.74,2.26c0.25,0.18,0.5,0.32,0.74,0.53l0.28-0.46l1.24-1.87l0.18-0.28l0.39-0.6l0.5-0.78l0.25-0.39l0.11-0.18
			l0.11-0.18l0.25-0.39C29.04,7.4,28.54,7.04,28.01,6.73z M24.26,5.31h0.04c0.04,0,0.04,0,0.07,0.04
			C24.34,5.35,24.3,5.31,24.26,5.31z"/>
	</g>
	<g>
		<path class="st0" d="M12.81,13.59c0,0-0.81,0.18-0.74-0.21c0-0.18,0.11-0.21,0.18-0.18c0-0.07-0.18-0.28,0.21-0.39
			c0.11-0.18,0.21-0.32,0.28-0.42c0.07-0.11,0.11-0.28,0.42-0.18c0.32,0.07,0.64,0.39,0.71,0.5c0.18,0,0.39,0.07,0.32,0.07
			c-0.07,0.07-0.11,0.11-0.11,0.11s0.11,0.07-0.21,0.07c0,0.07,0.07,0.11,0.11,0.11c0.07,0.07,0,0.07,0,0.11
			c0,0,0.07,0.18-0.11,0.11c-0.18-0.07-0.18-0.11-0.21-0.11c-0.07,0-0.18,0-0.18,0.07c0,0.07,0.18,0.18,0,0.18
			c-0.07,0.07,0.07,0.11,0,0.11c-0.07,0.07-0.42,0.32-0.6,0.39c-0.18,0-0.21-0.07-0.21-0.11c0-0.04,0.11-0.11,0.21-0.11
			C12.81,13.62,12.84,13.59,12.81,13.59"/>
		<path class="st0" d="M12.74,14.43c-0.07,0-0.32-0.18-0.18-0.21c0.11-0.11,0.64-0.42,0.74-0.5c0.11-0.07,0.28,0.11,0.11,0.21
			C13.27,14.12,12.74,14.43,12.74,14.43"/>
		<path class="st0" d="M13.55,14.05c0-0.11,0.11-0.42,0.11-0.5c0-0.07,0.28-0.11,0.21,0.21C13.76,14.05,13.55,14.19,13.55,14.05"/>
		<path class="st0" d="M13.94,13.41c0,0,1.52-0.07,1.63,0c0.11,0.07,0.64,0.85,0.5,1.56c-0.11,0.71-0.32,0.85-1.31,0.99
			c0-0.21-0.07-0.81-0.18-0.99c-0.11-0.18-0.42-0.53-0.53-0.53c0,0.18-0.07,0.64-0.07,0.64s-0.5,0.07-0.53-0.07
			c0-0.18,0-0.74,0-0.74s0.42-0.39,0.5-0.5c0.07,0.07,0.11,0.28,0.6,0.21C14.54,14.05,13.94,14.12,13.94,13.41"/>
		<path class="st0" d="M13.34,14.12c0,0-0.5,0.39-0.6,0.5c-0.07,0.11-0.11,0.53,0.5,0.53C13.34,14.86,13.34,14.12,13.34,14.12"/>
		<path class="st0" d="M12.21,14.72c-0.18,0-0.28-0.07-0.28-0.18s0.21-0.28,0.39-0.21c0.11,0.07,0.39,0.11,0.39,0.6
			c0.11,0.11,0.39,0.32,0.74,0.32c0.39,0,0.6,0,0.6,0.11v0.71c0,0-0.42,0-1.52-0.74c-0.11-0.11-0.18-0.21-0.18-0.39
			C12.35,14.75,12.24,14.72,12.21,14.72"/>
		<path class="st0" d="M11.89,14.75c-0.18,0-0.71,0.42-0.32,0.6c0.11-0.11,0.21-0.21,0.21-0.21s-0.11,0.28,0.11,0.32
			c0.21,0.07,0.11-0.11,0.21-0.11c0.07,0.11,0.07,0.18,0.18,0.18s0.11-0.32,0-0.5C12.21,14.86,12.1,14.75,11.89,14.75"/>
		<path class="st0" d="M14.15,14.82v1.41c0,0,0.42-0.18,0.5-0.28C14.65,15.74,14.54,14.82,14.15,14.82"/>
		<path class="st0" d="M13.02,15.74c0,0,0.53,0.39,0.85,0.5c-0.07,0.07-0.28,0.39-0.39,0.32C13.44,16.56,13.06,16.03,13.02,15.74"/>
		<polygon class="st0" points="11.11,16.56 10.4,16.56 10.37,16.27 11.11,16.27 		"/>
		<polygon class="st0" points="15.81,16.49 18.43,16.49 18.43,16.13 15.35,16.13 		"/>
		<path class="st0" d="M14.75,16.13c0.07-0.07,0.42,0.21,0.32,0.28c-0.11,0.07-1.1,0.42-1.13,0.42c-0.11-0.07-0.07-0.28,0.07-0.32
			C14.05,16.45,14.58,16.27,14.75,16.13"/>
		<path class="st0" d="M13.66,16.77c-0.11-0.07-0.71,0.53-0.42,0.6c0.28,0.07,0.92,0.18,1.1,0.28c0.18-0.07,0.28-0.21,0.28-0.28
			c0.11,0,0.28,0.18,0.42,0.11c0.18-0.07,0.92-0.6,0.92-0.71c-0.18-0.11-0.5-0.32-0.64-0.32C15.18,16.38,14.19,16.98,13.66,16.77"/>
		<path class="st0" d="M13.34,17.51c0.07,0,0.85,0.28,1.03,0.28c0.21-0.07,0.21-0.21,0.32-0.21c0.11,0,0.18,0.11,0.32,0
			c0.18-0.11,0.53-0.42,0.6-0.5c0,0.11,0,0.42-0.71,0.74c-0.71,0.32-2.37,0.81-2.44,1.03c0.07,0,0.28-0.07,0.42-0.11
			c0.11,0.07,0.28,0.28,0.21,0.64c-0.07,0.39-0.32,0.99-0.32,1.13c0,0.14,0,0.92,0,1.03c0,0.07,0.18,0.53-0.07,0.5
			s-0.32-0.07-0.42,0c-0.11,0-0.28,0.18-0.39,0.11c-0.18,0-0.39-0.11-0.39-0.18s0.18-0.07,0.32-0.11c0.18-0.07,0.21-0.21,0.5-0.32
			c0-0.18-0.11-1.52-0.11-1.8c0-0.28-0.11-0.85,0.07-1.1C12.42,18.39,13.06,17.48,13.34,17.51"/>
		<path class="st0" d="M14.36,18.29c0,0.11,0.5,1.31,0.71,1.31c0.21,0,2.23-0.42,2.58-0.28c0.11,0.18,0.32,0.42,0.32,0.6
			c0,0,0.07,0.39,0,0.42c0.07,0,0.21-0.07,0.28-0.18s0-0.64,0-0.74s0.28-0.6-0.07-0.53c-0.32,0-1.24,0-1.56-0.07
			c-0.28-0.07-0.99-0.21-1.13-0.11c-0.18,0.11-0.39,0.39-0.39,0.42c-0.07,0-0.11-0.07,0-0.28c0.07-0.21,0.32-0.81,0.28-1.13
			C15.21,17.79,14.36,18.29,14.36,18.29"/>
		<path class="st0" d="M13.23,16.38c0,0.07,0.07,0.18,0.11,0.21l-1.56-0.11c0,0-0.18-0.11-0.11-0.18L13.23,16.38z"/>
		<path class="st0" d="M11.5,16.27h1.56c0,0-0.11-0.18-0.18-0.28c-0.28,0-1.45,0-1.45,0s-0.18,0-0.18,0.32
			C11.29,16.38,11.39,16.49,11.5,16.27"/>
		<path class="st0" d="M9.98,16.56h0.32c0,0,0.11-0.07,0-0.18s-0.32-0.21-0.18-0.42c-0.18,0-0.39-0.07-0.32,0.42H9.63
			c0,0-0.07-0.28-0.42-0.28c-0.39,0-1.31,0.39-1.31,0.39s1.03,0.28,1.31,0.28c0.28,0,0.42-0.28,0.42-0.28h0.11
			c0,0,0.07,0.21,0.11,0.28c0,0.11,0,0.32,0,0.32S9.7,17.16,9.77,17.3c0,0.18,0.11,0.18,0.18,0.18c0.07,0,0.07-0.07,0.21-0.07
			c0.07-0.07,0-0.28-0.11-0.32c0-0.11,0-0.21,0-0.21s0.11-0.11,0.11-0.18C10.08,16.59,9.98,16.66,9.98,16.56"/>
		<path class="st0" d="M11.89,18.08L11.89,18.08c0.11-0.07,0.18-0.21,0.18-0.21l0,0l0,0c0,0,0-0.71,0-0.92s-0.39-0.39-0.42-0.39l0,0
			l0,0c-0.07,0.07-0.18,0.11-0.21,0.11c-0.11,0-0.18,0-0.28-0.11l0,0l0,0c-0.32,0-0.5,0.39-0.5,0.42l0,0c0,0.07-0.07,0.74,0,0.85
			c0,0.11,0.11,0.21,0.18,0.28c-0.07,0.21-0.39,1.45,0.07,1.63v0.21h1.1v-0.21C12.24,19.49,11.99,18.39,11.89,18.08 M10.62,16.94
			c0-0.07,0.18-0.32,0.39-0.32c0.11,0.11,0.21,0.11,0.32,0.11c0.11,0,0.21-0.11,0.28-0.11c0.11,0.07,0.32,0.18,0.32,0.32
			c0,0.21,0,0.85,0,0.92c0,0.07-0.07,0.11-0.11,0.18h-0.21v-0.42H10.9v0.39h-0.18c-0.07-0.07-0.11-0.11-0.11-0.21
			C10.62,17.69,10.62,17.19,10.62,16.94 M11.39,19.49h-0.21c-0.07,0-0.11-0.07-0.11-0.11c0-0.07,0.07-0.11,0.11-0.11h0.21
			c0.07,0,0.11,0.07,0.11,0.11S11.43,19.49,11.39,19.49 M11.82,19.6L11.29,19l-0.5,0.6l0,0c-0.32-0.11-0.11-1.1,0-1.52h1.03
			C11.92,18.5,12.1,19.42,11.82,19.6"/>
		<path class="st0" d="M11.64,18.5c0.11-0.18-0.07-0.28-0.07-0.28h-0.64c-0.21,0-0.18,0.28-0.18,0.28l0.39,0.32
			C11.29,18.82,11.53,18.68,11.64,18.5"/>
		<path class="st0" d="M11.39,18.89l0.39,0.42c0,0-0.07-0.53-0.07-0.71C11.64,18.68,11.39,18.89,11.39,18.89"/>
		<path class="st0" d="M10.83,18.61c0,0.18-0.07,0.71-0.07,0.71l0.39-0.42C11.18,18.89,10.97,18.68,10.83,18.61"/>
		<path class="st0" d="M11.61,17.48h0.07V17.4c0-0.07-0.07-0.07-0.07-0.07H11c-0.07,0-0.07,0.07-0.07,0.07v0.07H11H11.61z"/>
		<path class="st0" d="M10.72,19.95h-0.07v0.07c0,0.07,0.07,0.07,0.07,0.07h1.1c0.07,0,0.07-0.07,0.07-0.07v-0.07h-0.07H10.72z"/>
	</g>
</g>
</svg>
